<svg xmlns="http://www.w3.org/2000/svg" xmlns:xlink="http://www.w3.org/1999/xlink" width="1080" zoomAndPan="magnify" viewBox="0 0 810 809.999993" height="1080" preserveAspectRatio="xMidYMid meet" version="1.0"><defs><g/><clipPath id="9f9b0d1bcc"><path d="M 207 362 L 334.996094 362 L 334.996094 411 L 207 411 Z M 207 362 " clip-rule="nonzero"/></clipPath><clipPath id="78556676a4"><path d="M 38 258.269531 L 311 258.269531 L 311 572.519531 L 38 572.519531 Z M 38 258.269531 " clip-rule="nonzero"/></clipPath></defs><path fill="#fa8e02" d="M 174.714844 473.386719 C 168.460938 473.386719 162.335938 472.75 156.335938 471.917969 C 152.378906 471.539062 148.617188 470.707031 144.914062 469.816406 C 145.171875 470.453125 145.171875 471.027344 145.296875 471.410156 C 148.808594 483.773438 157.550781 494.414062 174.714844 513.789062 C 191.75 494.351562 200.363281 483.835938 204.128906 471.410156 C 204.128906 471.027344 204.382812 470.328125 204.511719 469.816406 C 200.808594 470.644531 197.046875 471.410156 193.089844 471.917969 C 187.09375 472.75 180.964844 473.386719 174.714844 473.386719 Z M 174.714844 473.386719 " fill-opacity="1" fill-rule="nonzero"/><path fill="#fa8e02" d="M 156.910156 467.140625 C 162.71875 467.96875 168.714844 468.351562 174.714844 468.351562 C 180.710938 468.351562 186.710938 467.96875 192.515625 467.140625 C 196.917969 466.503906 201.191406 465.675781 205.339844 464.65625 C 206.171875 459.046875 206.171875 452.863281 205.722656 445.027344 C 201.320312 446.238281 197.046875 447.128906 192.453125 447.703125 C 186.644531 448.53125 180.648438 448.914062 174.648438 448.914062 C 168.652344 448.914062 162.652344 448.53125 156.847656 447.703125 C 152.316406 447.066406 147.785156 446.238281 143.574219 445.027344 C 142.9375 452.863281 143.191406 459.109375 143.832031 464.65625 C 147.976562 465.800781 152.378906 466.566406 156.910156 467.140625 Z M 156.910156 467.140625 " fill-opacity="1" fill-rule="nonzero"/><path fill="#fa8e02" d="M 157.550781 443.050781 C 163.164062 443.878906 168.96875 444.261719 174.714844 444.261719 C 180.519531 444.261719 186.328125 443.878906 191.75 443.050781 C 196.535156 442.414062 201.066406 441.457031 205.46875 440.121094 C 205.085938 434.320312 204.257812 427.882812 203.363281 420.300781 C 199.851562 421.128906 196.152344 421.765625 192.578125 422.402344 C 186.773438 423.039062 180.773438 423.488281 174.777344 423.488281 C 168.777344 423.488281 162.78125 423.105469 156.976562 422.402344 C 153.273438 421.765625 149.765625 421.191406 146.191406 420.300781 C 145.363281 428.011719 144.597656 434.382812 144.085938 440.121094 C 148.488281 441.332031 153.019531 442.414062 157.550781 443.050781 Z M 157.550781 443.050781 " fill-opacity="1" fill-rule="nonzero"/><path fill="#fa8e02" d="M 157.550781 417.367188 C 163.164062 418.199219 168.96875 418.578125 174.714844 418.578125 C 180.519531 418.578125 186.328125 418.199219 191.75 417.367188 C 195.449219 416.988281 199.214844 416.160156 202.660156 415.265625 L 202.40625 414.054688 C 192.261719 403.15625 182.5625 391.558594 174.714844 381.363281 C 166.609375 391.496094 157.167969 403.03125 146.765625 414.054688 L 146.765625 415.265625 C 150.339844 416.09375 153.847656 416.988281 157.550781 417.367188 Z M 157.550781 417.367188 " fill-opacity="1" fill-rule="nonzero"/><path fill="#fa8e02" d="M 143.449219 410.996094 C 153.785156 399.589844 163.546875 387.863281 171.523438 377.476562 C 164.886719 369 159.71875 361.800781 156.402344 357.273438 C 155.761719 360.589844 154.933594 363.519531 154.101562 366.324219 C 146.253906 391.175781 128.835938 404.175781 109.246094 410.359375 C 94.570312 415.140625 78.617188 415.96875 64.773438 415.265625 C 60.625 418.578125 57.753906 421.511719 56.925781 424.1875 C 54.246094 432.410156 52.96875 441.203125 56.667969 446.492188 C 60.371094 452.101562 69.496094 454.96875 87.679688 452.101562 C 105.671875 449.425781 129.089844 426.035156 142.363281 411.953125 C 142.617188 411.570312 142.875 411.1875 143.449219 410.996094 Z M 143.449219 410.996094 " fill-opacity="1" fill-rule="nonzero"/><path fill="#fa8e02" d="M 107.90625 405.835938 C 123.859375 400.671875 138.085938 390.921875 146.382812 373.398438 C 132.152344 379.386719 92.785156 396.402344 71.28125 410.613281 C 83.023438 410.742188 95.910156 409.53125 107.90625 405.835938 Z M 107.90625 405.835938 " fill-opacity="1" fill-rule="nonzero"/><path fill="#fa8e02" d="M 64.007812 410.359375 C 84.679688 394.808594 127.113281 376.203125 143.320312 369.445312 C 96.292969 357.210938 54.117188 363.457031 31.527344 374.609375 C 25.277344 377.667969 20.746094 380.980469 18.066406 384.550781 C 15.578125 387.609375 14.746094 390.539062 15.578125 393.472656 C 17.042969 397.867188 22.40625 401.945312 32.742188 405.070312 C 37.273438 406.535156 44.355469 408.128906 52.839844 409.210938 C 56.414062 409.722656 60.113281 410.105469 64.007812 410.359375 Z M 64.007812 410.359375 " fill-opacity="1" fill-rule="nonzero"/><path fill="#fa8e02" d="M 177.777344 377.539062 C 185.878906 387.863281 195.578125 399.652344 205.851562 411.058594 C 206.234375 411.316406 206.679688 411.699219 206.9375 412.144531 C 219.953125 426.226562 243.371094 449.488281 261.617188 452.292969 C 279.867188 455.222656 288.929688 452.292969 292.628906 446.683594 C 296.332031 441.332031 294.925781 432.601562 292.375 424.378906 C 291.542969 421.703125 288.671875 418.769531 284.527344 415.328125 C 270.425781 416.160156 254.726562 415.328125 240.050781 410.550781 C 220.398438 404.304688 202.789062 391.304688 195.195312 366.515625 C 194.109375 363.582031 193.601562 360.714844 192.898438 357.464844 C 189.644531 361.734375 184.410156 369 177.777344 377.539062 Z M 177.777344 377.539062 " fill-opacity="1" fill-rule="nonzero"/><path fill="#fa8e02" d="M 202.917969 372.886719 C 211.148438 390.667969 225.441406 400.546875 241.648438 405.707031 C 253.644531 409.402344 266.53125 410.613281 278.273438 410.488281 C 256.257812 396.148438 215.867188 378.496094 202.917969 372.886719 Z M 202.917969 372.886719 " fill-opacity="1" fill-rule="nonzero"/><g clip-path="url(#9f9b0d1bcc)"><path fill="#fa8e02" d="M 207.0625 369.445312 C 223.015625 376.265625 265 394.875 285.484375 410.359375 C 289.4375 410.105469 293.203125 409.722656 296.648438 409.148438 C 305.136719 408.066406 312.21875 406.472656 316.75 405.007812 C 327.085938 401.691406 332.445312 397.550781 333.914062 393.40625 C 334.996094 390.476562 333.914062 387.417969 331.617188 384.359375 C 328.9375 381.042969 324.152344 377.539062 318.152344 374.671875 C 295.820312 363.457031 253.769531 357.464844 207.0625 369.445312 Z M 207.0625 369.445312 " fill-opacity="1" fill-rule="nonzero"/></g><path fill="#fa8e02" d="M 174.714844 373.523438 C 183.773438 361.734375 190.027344 352.878906 191.878906 350.390625 C 191.046875 349.308594 189.390625 346.886719 186.964844 343.574219 C 186.582031 341.46875 185.496094 332.675781 196.023438 325.347656 C 202.660156 320.824219 206.171875 321.203125 207.445312 323.242188 C 208.277344 324.074219 208.53125 325.539062 208.277344 326.941406 C 208.277344 328.152344 207.894531 329.425781 207.191406 330 C 206.808594 330.382812 205.980469 330.253906 204.703125 328.789062 C 203.617188 327.703125 202.214844 327.703125 201.191406 328.535156 C 200.109375 329.617188 200.109375 331.019531 200.9375 332.039062 C 204.640625 335.988281 207.957031 335.734375 210.507812 333.503906 C 211.976562 332.039062 212.996094 329.808594 213.1875 327.257812 C 213.378906 324.773438 212.804688 322.351562 211.59375 320.25 C 208.660156 316.296875 202.917969 314.449219 193.21875 321.332031 C 185.75 326.238281 183.070312 332.230469 182.304688 337.007812 C 180.839844 334.90625 179.242188 332.613281 177.394531 330.191406 C 176.753906 329.554688 175.925781 329.105469 174.90625 329.105469 C 173.882812 329.105469 173.054688 329.488281 172.417969 330.191406 C 170.566406 332.675781 168.90625 334.96875 167.503906 337.007812 C 166.417969 332.230469 163.800781 326.238281 156.335938 321.332031 C 146.636719 314.511719 140.769531 316.425781 138.085938 320.25 C 136.621094 322.351562 136.238281 324.773438 136.492188 327.257812 C 136.746094 329.746094 137.578125 332.039062 139.171875 333.503906 C 141.660156 335.796875 144.980469 335.988281 148.488281 332.039062 C 149.574219 330.953125 149.574219 329.554688 148.488281 328.535156 C 147.402344 327.703125 145.808594 327.703125 144.980469 328.789062 C 143.765625 330.253906 142.875 330.382812 142.492188 330 C 141.851562 329.363281 141.40625 328.152344 141.277344 326.941406 C 141.277344 325.472656 141.535156 324.007812 142.363281 323.242188 C 143.574219 321.140625 147.148438 320.757812 153.785156 325.347656 C 164.3125 332.546875 163.101562 341.46875 162.71875 343.574219 C 160.421875 346.886719 158.761719 349.371094 157.933594 350.390625 C 159.144531 352.941406 165.652344 361.734375 174.714844 373.523438 Z M 174.714844 373.523438 " fill-opacity="1" fill-rule="nonzero"/><g clip-path="url(#78556676a4)"><path fill="#fa8e02" d="M 178.667969 260.535156 L 242.796875 297.753906 L 310.941406 337.007812 L 310.941406 366.132812 C 308.261719 365.050781 305.328125 364.03125 302.457031 363.199219 L 302.457031 341.789062 L 238.710938 304.953125 L 238.457031 304.953125 L 174.714844 268.121094 L 110.96875 304.953125 L 47.097656 341.789062 L 47.097656 363.457031 C 44.164062 364.285156 41.484375 365.050781 38.613281 366.132812 L 38.613281 337.007812 L 106.628906 297.6875 L 174.714844 258.433594 Z M 310.878906 411.570312 L 310.878906 493.84375 L 242.730469 533.097656 L 174.585938 572.355469 L 106.566406 533.226562 L 38.546875 493.84375 L 38.546875 411.570312 C 41.484375 412.398438 44.355469 412.78125 47.035156 413.164062 L 47.035156 489.0625 L 110.96875 525.898438 L 174.714844 562.730469 L 238.457031 525.898438 L 238.710938 525.898438 L 302.457031 489.0625 L 302.457031 413.164062 C 305.261719 412.84375 308.199219 412.207031 310.878906 411.570312 Z M 310.878906 411.570312 " fill-opacity="1" fill-rule="nonzero"/></g><g fill="#fa8e02" fill-opacity="1"><g transform="translate(334.863474, 439.301967)"><g><path d="M 5.390625 -74.1875 L 28.421875 -74.1875 C 35.367188 -74.1875 40.910156 -72.703125 45.046875 -69.734375 C 49.179688 -66.765625 51.25 -61.953125 51.25 -55.296875 C 51.25 -47.867188 48.164062 -42.566406 42 -39.390625 C 52.539062 -37.523438 57.8125 -31.289062 57.8125 -20.6875 C 57.8125 -14.445312 55.65625 -9.4375 51.34375 -5.65625 C 47.03125 -1.882812 41.097656 0 33.546875 0 L 5.390625 0 Z M 22.296875 -45.140625 L 23.65625 -45.140625 C 27.425781 -45.140625 30.238281 -45.796875 32.09375 -47.109375 C 33.957031 -48.429688 34.890625 -50.59375 34.890625 -53.59375 C 34.890625 -58.625 31.144531 -61.140625 23.65625 -61.140625 L 22.296875 -61.140625 Z M 22.296875 -13.03125 L 27.609375 -13.03125 C 35.878906 -13.03125 40.015625 -15.789062 40.015625 -21.3125 C 40.015625 -24.601562 38.976562 -26.96875 36.90625 -28.40625 C 34.84375 -29.851562 31.742188 -30.578125 27.609375 -30.578125 L 22.296875 -30.578125 Z M 22.296875 -13.03125 "/></g></g></g><g fill="#fa8e02" fill-opacity="1"><g transform="translate(394.749197, 439.301967)"><g><path d="M 62.40625 -74.1875 L 62.40625 -26.34375 C 62.40625 -17.226562 59.945312 -10.332031 55.03125 -5.65625 C 50.113281 -0.988281 42.921875 1.34375 33.453125 1.34375 C 23.984375 1.34375 16.789062 -0.988281 11.875 -5.65625 C 6.957031 -10.332031 4.5 -17.226562 4.5 -26.34375 L 4.5 -74.1875 L 21.40625 -74.1875 L 21.40625 -31.296875 C 21.40625 -25.296875 22.347656 -21.125 24.234375 -18.78125 C 26.117188 -16.445312 29.1875 -15.28125 33.4375 -15.28125 C 37.695312 -15.28125 40.769531 -16.445312 42.65625 -18.78125 C 44.550781 -21.125 45.5 -25.296875 45.5 -31.296875 L 45.5 -74.1875 Z M 62.40625 -74.1875 "/></g></g></g><g fill="#fa8e02" fill-opacity="1"><g transform="translate(461.648555, 439.301967)"><g><path d="M 67.71875 -74.1875 L 30.9375 -14.84375 L 65.28125 -14.84375 L 65.28125 0 L 1.4375 0 L 38.125 -59.34375 L 6.65625 -59.34375 L 6.65625 -74.1875 Z M 67.71875 -74.1875 "/></g></g></g><g fill="#fa8e02" fill-opacity="1"><g transform="translate(530.795878, 439.301967)"><g><path d="M 67.71875 -74.1875 L 30.9375 -14.84375 L 65.28125 -14.84375 L 65.28125 0 L 1.4375 0 L 38.125 -59.34375 L 6.65625 -59.34375 L 6.65625 -74.1875 Z M 67.71875 -74.1875 "/></g></g></g><g fill="#fa8e02" fill-opacity="1"><g transform="translate(599.943202, 439.301967)"><g><path d="M 22.296875 -29.765625 L 22.296875 0 L 5.390625 0 L 5.390625 -74.1875 L 22.296875 -74.1875 L 22.296875 -44.59375 L 46.21875 -44.59375 L 46.21875 -74.1875 L 63.125 -74.1875 L 63.125 0 L 46.21875 0 L 46.21875 -29.765625 Z M 22.296875 -29.765625 "/></g></g></g><g fill="#fa8e02" fill-opacity="1"><g transform="translate(668.461099, 439.301967)"><g><path d="M 62.40625 -74.1875 L 62.40625 -26.34375 C 62.40625 -17.226562 59.945312 -10.332031 55.03125 -5.65625 C 50.113281 -0.988281 42.921875 1.34375 33.453125 1.34375 C 23.984375 1.34375 16.789062 -0.988281 11.875 -5.65625 C 6.957031 -10.332031 4.5 -17.226562 4.5 -26.34375 L 4.5 -74.1875 L 21.40625 -74.1875 L 21.40625 -31.296875 C 21.40625 -25.296875 22.347656 -21.125 24.234375 -18.78125 C 26.117188 -16.445312 29.1875 -15.28125 33.4375 -15.28125 C 37.695312 -15.28125 40.769531 -16.445312 42.65625 -18.78125 C 44.550781 -21.125 45.5 -25.296875 45.5 -31.296875 L 45.5 -74.1875 Z M 62.40625 -74.1875 "/></g></g></g><g fill="#fa8e02" fill-opacity="1"><g transform="translate(735.360457, 439.301967)"><g><path d="M 5.390625 -74.1875 L 28.421875 -74.1875 C 35.367188 -74.1875 40.910156 -72.703125 45.046875 -69.734375 C 49.179688 -66.765625 51.25 -61.953125 51.25 -55.296875 C 51.25 -47.867188 48.164062 -42.566406 42 -39.390625 C 52.539062 -37.523438 57.8125 -31.289062 57.8125 -20.6875 C 57.8125 -14.445312 55.65625 -9.4375 51.34375 -5.65625 C 47.03125 -1.882812 41.097656 0 33.546875 0 L 5.390625 0 Z M 22.296875 -45.140625 L 23.65625 -45.140625 C 27.425781 -45.140625 30.238281 -45.796875 32.09375 -47.109375 C 33.957031 -48.429688 34.890625 -50.59375 34.890625 -53.59375 C 34.890625 -58.625 31.144531 -61.140625 23.65625 -61.140625 L 22.296875 -61.140625 Z M 22.296875 -13.03125 L 27.609375 -13.03125 C 35.878906 -13.03125 40.015625 -15.789062 40.015625 -21.3125 C 40.015625 -24.601562 38.976562 -26.96875 36.90625 -28.40625 C 34.84375 -29.851562 31.742188 -30.578125 27.609375 -30.578125 L 22.296875 -30.578125 Z M 22.296875 -13.03125 "/></g></g></g></svg>