<svg xmlns="http://www.w3.org/2000/svg" xmlns:xlink="http://www.w3.org/1999/xlink" width="1080" zoomAndPan="magnify" viewBox="0 0 810 809.999993" height="1080" preserveAspectRatio="xMidYMid meet" version="1.0"><defs><clipPath id="3ed11a8798"><path d="M 117 73.042969 L 693 73.042969 L 693 736.792969 L 117 736.792969 Z M 117 73.042969 " clip-rule="nonzero"/></clipPath></defs><path fill="#fa8e02" d="M 404.671875 527.410156 C 391.476562 527.410156 378.550781 526.0625 365.894531 524.3125 C 357.546875 523.503906 349.601562 521.753906 341.792969 519.871094 C 342.332031 521.214844 342.332031 522.429688 342.601562 523.234375 C 350.007812 549.347656 368.453125 571.828125 404.671875 612.746094 C 440.617188 571.691406 458.796875 549.484375 466.738281 523.234375 C 466.738281 522.429688 467.277344 520.949219 467.546875 519.871094 C 459.738281 521.621094 451.792969 523.234375 443.445312 524.3125 C 430.789062 526.0625 417.863281 527.410156 404.671875 527.410156 Z M 404.671875 527.410156 " fill-opacity="1" fill-rule="nonzero"/><path fill="#fa8e02" d="M 367.105469 514.21875 C 379.359375 515.96875 392.015625 516.773438 404.671875 516.773438 C 417.328125 516.773438 429.984375 515.96875 442.234375 514.21875 C 451.523438 512.871094 460.546875 511.121094 469.296875 508.96875 C 471.046875 497.121094 471.046875 484.066406 470.105469 467.511719 C 460.816406 470.066406 451.792969 471.953125 442.101562 473.164062 C 429.847656 474.914062 417.191406 475.722656 404.535156 475.722656 C 391.878906 475.722656 379.222656 474.914062 366.972656 473.164062 C 357.414062 471.816406 347.851562 470.066406 338.96875 467.511719 C 337.621094 484.066406 338.160156 497.257812 339.503906 508.96875 C 348.257812 511.390625 357.546875 513.007812 367.105469 514.21875 Z M 367.105469 514.21875 " fill-opacity="1" fill-rule="nonzero"/><path fill="#fa8e02" d="M 368.453125 463.335938 C 380.300781 465.085938 392.554688 465.894531 404.671875 465.894531 C 416.921875 465.894531 429.175781 465.085938 440.617188 463.335938 C 450.71875 461.992188 460.277344 459.972656 469.566406 457.144531 C 468.757812 444.898438 467.007812 431.300781 465.125 415.285156 C 457.71875 417.035156 449.910156 418.378906 442.371094 419.726562 C 430.117188 421.070312 417.460938 422.015625 404.804688 422.015625 C 392.148438 422.015625 379.492188 421.207031 367.242188 419.726562 C 359.433594 418.378906 352.027344 417.167969 344.488281 415.285156 C 342.738281 431.570312 341.121094 445.03125 340.042969 457.144531 C 349.335938 459.703125 358.894531 461.992188 368.453125 463.335938 Z M 368.453125 463.335938 " fill-opacity="1" fill-rule="nonzero"/><path fill="#fa8e02" d="M 368.453125 409.09375 C 380.300781 410.84375 392.554688 411.648438 404.671875 411.648438 C 416.921875 411.648438 429.175781 410.84375 440.617188 409.09375 C 448.429688 408.285156 456.371094 406.535156 463.640625 404.652344 L 463.105469 402.09375 C 441.695312 379.074219 421.230469 354.578125 404.671875 333.042969 C 387.570312 354.445312 367.644531 378.808594 345.699219 402.09375 L 345.699219 404.652344 C 353.238281 406.402344 360.644531 408.285156 368.453125 409.09375 Z M 368.453125 409.09375 " fill-opacity="1" fill-rule="nonzero"/><path fill="#fa8e02" d="M 338.699219 395.632812 C 360.507812 371.539062 381.109375 346.769531 397.9375 324.832031 C 383.9375 306.929688 373.03125 291.71875 366.03125 282.160156 C 364.683594 289.160156 362.933594 295.351562 361.183594 301.277344 C 344.621094 353.769531 307.867188 381.230469 266.53125 394.285156 C 235.566406 404.382812 201.90625 406.132812 172.6875 404.652344 C 163.9375 411.648438 157.878906 417.839844 156.128906 423.496094 C 150.472656 440.859375 147.78125 459.433594 155.589844 470.605469 C 163.398438 482.449219 182.652344 488.507812 221.023438 482.449219 C 258.992188 476.796875 308.402344 427.398438 336.410156 397.652344 C 336.949219 396.84375 337.484375 396.035156 338.699219 395.632812 Z M 338.699219 395.632812 " fill-opacity="1" fill-rule="nonzero"/><path fill="#fa8e02" d="M 263.703125 384.730469 C 297.363281 373.828125 327.386719 353.230469 344.890625 316.214844 C 314.867188 328.871094 231.792969 364.808594 186.421875 394.824219 C 211.195312 395.09375 238.390625 392.535156 263.703125 384.730469 Z M 263.703125 384.730469 " fill-opacity="1" fill-rule="nonzero"/><path fill="#fa8e02" d="M 171.074219 394.285156 C 214.695312 361.441406 304.230469 322.140625 338.429688 307.871094 C 239.199219 282.027344 150.203125 295.21875 102.542969 318.773438 C 89.347656 325.234375 79.789062 332.234375 74.132812 339.773438 C 68.882812 346.234375 67.132812 352.425781 68.882812 358.617188 C 71.980469 367.902344 83.289062 376.519531 105.101562 383.113281 C 114.660156 386.210938 129.605469 389.574219 147.511719 391.863281 C 155.050781 392.941406 162.859375 393.746094 171.074219 394.285156 Z M 171.074219 394.285156 " fill-opacity="1" fill-rule="nonzero"/><path fill="#fa8e02" d="M 411.132812 324.964844 C 428.230469 346.769531 448.699219 371.671875 470.375 395.765625 C 471.183594 396.304688 472.125 397.113281 472.664062 398.054688 C 500.128906 427.800781 549.542969 476.933594 588.046875 482.855469 C 626.554688 489.046875 645.671875 482.855469 653.480469 471.011719 C 661.292969 459.703125 658.328125 441.261719 652.945312 423.898438 C 651.195312 418.246094 645.132812 412.054688 636.382812 404.785156 C 606.628906 406.535156 573.507812 404.785156 542.539062 394.691406 C 501.070312 381.5 463.910156 354.039062 447.890625 301.679688 C 445.601562 295.488281 444.523438 289.429688 443.042969 282.566406 C 436.175781 291.585938 425.136719 306.929688 411.132812 324.964844 Z M 411.132812 324.964844 " fill-opacity="1" fill-rule="nonzero"/><path fill="#fa8e02" d="M 464.179688 315.140625 C 481.550781 352.695312 511.707031 373.558594 545.90625 384.460938 C 571.21875 392.265625 598.414062 394.824219 623.1875 394.554688 C 576.738281 364.269531 491.511719 326.984375 464.179688 315.140625 Z M 464.179688 315.140625 " fill-opacity="1" fill-rule="nonzero"/><path fill="#fa8e02" d="M 472.933594 307.871094 C 506.59375 322.273438 595.183594 361.578125 638.402344 394.285156 C 646.75 393.746094 654.695312 392.941406 661.964844 391.730469 C 679.871094 389.441406 694.816406 386.074219 704.375 382.980469 C 726.1875 375.980469 737.496094 367.230469 740.59375 358.480469 C 742.882812 352.289062 740.59375 345.828125 735.746094 339.367188 C 730.089844 332.367188 719.992188 324.964844 707.335938 318.910156 C 660.214844 295.21875 571.488281 282.566406 472.933594 307.871094 Z M 472.933594 307.871094 " fill-opacity="1" fill-rule="nonzero"/><path fill="#fa8e02" d="M 404.671875 316.484375 C 423.789062 291.585938 436.984375 272.875 440.886719 267.625 C 439.136719 265.335938 435.636719 260.222656 430.519531 253.222656 C 429.714844 248.78125 427.425781 230.207031 449.640625 214.726562 C 463.640625 205.167969 471.046875 205.976562 473.738281 210.285156 C 475.492188 212.035156 476.027344 215.128906 475.492188 218.089844 C 475.492188 220.648438 474.683594 223.339844 473.203125 224.550781 C 472.394531 225.359375 470.644531 225.089844 467.949219 221.996094 C 465.660156 219.707031 462.699219 219.707031 460.546875 221.457031 C 458.257812 223.746094 458.257812 226.707031 460.007812 228.859375 C 467.816406 237.203125 474.816406 236.667969 480.203125 231.957031 C 483.300781 228.859375 485.453125 224.148438 485.859375 218.765625 C 486.261719 213.515625 485.050781 208.398438 482.492188 203.957031 C 476.296875 195.613281 464.179688 191.710938 443.714844 206.246094 C 427.964844 216.609375 422.308594 229.261719 420.691406 239.359375 C 417.597656 234.917969 414.230469 230.070312 410.324219 224.957031 C 408.980469 223.609375 407.230469 222.667969 405.074219 222.667969 C 402.921875 222.667969 401.171875 223.476562 399.824219 224.957031 C 395.917969 230.207031 392.417969 235.050781 389.457031 239.359375 C 387.167969 229.261719 381.648438 216.609375 365.894531 206.246094 C 345.429688 191.84375 333.042969 195.882812 327.386719 203.957031 C 324.292969 208.398438 323.484375 213.515625 324.023438 218.765625 C 324.5625 224.015625 326.3125 228.859375 329.675781 231.957031 C 334.929688 236.800781 341.929688 237.203125 349.335938 228.859375 C 351.625 226.570312 351.625 223.609375 349.335938 221.457031 C 347.046875 219.707031 343.679688 219.707031 341.929688 221.996094 C 339.371094 225.089844 337.484375 225.359375 336.679688 224.550781 C 335.332031 223.207031 334.390625 220.648438 334.121094 218.089844 C 334.121094 214.996094 334.660156 211.898438 336.410156 210.285156 C 338.96875 205.84375 346.507812 205.035156 360.507812 214.726562 C 382.722656 229.9375 380.167969 248.78125 379.359375 253.222656 C 374.511719 260.222656 371.011719 265.472656 369.261719 267.625 C 371.820312 273.007812 385.550781 291.585938 404.671875 316.484375 Z M 404.671875 316.484375 " fill-opacity="1" fill-rule="nonzero"/><g clip-path="url(#3ed11a8798)"><path fill="#fa8e02" d="M 413.019531 77.835938 L 548.328125 156.441406 L 692.125 239.359375 L 692.125 300.871094 C 686.46875 298.582031 680.273438 296.429688 674.214844 294.679688 L 674.214844 249.453125 L 539.710938 171.652344 L 539.175781 171.652344 L 404.671875 93.851562 L 270.167969 171.652344 L 135.394531 249.453125 L 135.394531 295.21875 C 129.199219 296.96875 123.546875 298.582031 117.488281 300.871094 L 117.488281 239.359375 L 261.011719 156.308594 L 404.671875 73.394531 Z M 691.988281 396.84375 L 691.988281 570.617188 L 404.402344 736.445312 L 260.875 653.800781 L 117.351562 570.617188 L 117.351562 396.84375 C 123.546875 398.59375 129.605469 399.402344 135.257812 400.207031 L 135.257812 560.519531 L 270.167969 638.320312 L 404.671875 716.121094 L 539.175781 638.320312 L 539.710938 638.320312 L 674.214844 560.519531 L 674.214844 400.207031 C 680.140625 399.535156 686.335938 398.191406 691.988281 396.84375 Z M 691.988281 396.84375 " fill-opacity="1" fill-rule="nonzero"/></g></svg>