<svg width="191" height="133" viewBox="0 0 191 133" fill="none" xmlns="http://www.w3.org/2000/svg">
<path d="M95.5 0.875C70.9088 0.875 51.57 19.5572 48.8662 43.4023C43.6653 44.2404 38.7877 46.4691 34.7498 49.8524C30.7118 53.2357 27.6638 57.6478 25.9282 62.6217C11.2451 66.8536 0 79.949 0 96.375C0 116.215 15.9724 132.188 35.8125 132.188H155.188C175.028 132.188 191 116.215 191 96.375C191 85.87 185.897 76.4633 178.501 69.8857C177.117 48.9115 160.386 32.1751 139.334 31.0888C132.148 13.6063 115.662 0.875 95.5 0.875ZM95.5 12.8125C111.986 12.8125 125.165 23.3772 129.82 38.3587L131.133 42.6562H137.281C153.725 42.6562 167.125 56.0561 167.125 72.5V75.4844L169.548 77.3526C172.473 79.5941 174.85 82.4716 176.498 85.7672C178.146 89.0629 179.023 92.6903 179.062 96.375C179.062 109.96 168.772 120.25 155.188 120.25H35.8125C22.2276 120.25 11.9375 109.96 11.9375 96.375C11.9375 84.3181 20.5922 74.9591 31.515 73.0611L35.4365 72.315L36.1826 68.3875C37.9732 60.3476 45.0999 54.5938 53.7188 54.5938H59.6875V48.625C59.6875 28.5103 75.3853 12.8125 95.5 12.8125ZM95.5 46.2017L91.2025 50.3022L67.3275 74.1772L75.9225 82.7722L89.5312 69.1396V108.312H101.469V69.1396L115.078 82.7603L123.672 74.1653L99.7975 50.2903L95.5 46.2017Z" fill="#909DA5"/>
</svg>
